<?xml version="1.0" encoding="UTF-8" standalone="no"?>
<!DOCTYPE svg PUBLIC "-//W3C//DTD SVG 1.1//EN"
 "http://www.w3.org/Graphics/SVG/1.1/DTD/svg11.dtd">
<!-- Generated by graphviz version 2.40.1 (20161225.0304)
 -->
<!-- Title: dependencies Pages: 1 -->
<svg width="1182pt" height="284pt"
 viewBox="0.00 0.00 1182.00 284.00" xmlns="http://www.w3.org/2000/svg" xmlns:xlink="http://www.w3.org/1999/xlink">
<g id="graph0" class="graph" transform="scale(1 1) rotate(0) translate(4 280)">
<title>dependencies</title>
<polygon fill="#ffffff" stroke="transparent" points="-4,4 -4,-280 1178,-280 1178,4 -4,4"/>
<text text-anchor="start" x="566.0091" y="-42.4" font-family="sans-serif" font-weight="bold" font-size="14.00" fill="#000000">Legend</text>
<polygon fill="#ffffb3" stroke="transparent" points="353,-10 353,-30 373,-30 373,-10 353,-10"/>
<text text-anchor="start" x="376.629" y="-15.4" font-family="sans-serif" font-size="14.00" fill="#000000"> &#160;Declarations</text>
<polygon fill="#8dd3c7" stroke="transparent" points="466,-10 466,-30 486,-30 486,-10 466,-10"/>
<text text-anchor="start" x="489.7251" y="-15.4" font-family="sans-serif" font-size="14.00" fill="#000000"> &#160;Module</text>
<polygon fill="#80b1d3" stroke="transparent" points="552,-10 552,-30 572,-30 572,-10 552,-10"/>
<text text-anchor="start" x="575.7812" y="-15.4" font-family="sans-serif" font-size="14.00" fill="#000000"> &#160;Bootstrap</text>
<polygon fill="#fdb462" stroke="transparent" points="649,-10 649,-30 669,-30 669,-10 649,-10"/>
<text text-anchor="start" x="672.6732" y="-15.4" font-family="sans-serif" font-size="14.00" fill="#000000"> &#160;Providers</text>
<polygon fill="#fb8072" stroke="transparent" points="745,-10 745,-30 765,-30 765,-10 745,-10"/>
<text text-anchor="start" x="768.7258" y="-15.4" font-family="sans-serif" font-size="14.00" fill="#000000"> &#160;Exports</text>
<g id="clust1" class="cluster">
<title>cluster_MobiusCesium</title>
<polygon fill="none" stroke="#000000" stroke-dasharray="1,5" points="8,-70 8,-268 1166,-268 1166,-70 8,-70"/>
</g>
<g id="clust2" class="cluster">
<title>cluster_MobiusCesium_declarations</title>
<polygon fill="none" stroke="#000000" points="156,-78 156,-130 1158,-130 1158,-78 156,-78"/>
</g>
<g id="clust11" class="cluster">
<title>cluster_MobiusCesium_exports</title>
<polygon fill="none" stroke="#000000" points="477,-208 477,-260 661,-260 661,-208 477,-208"/>
</g>
<g id="clust13" class="cluster">
<title>cluster_MobiusCesium_providers</title>
<polygon fill="none" stroke="#000000" points="16,-78 16,-130 148,-130 148,-78 16,-78"/>
</g>
<!-- DataComponent -->
<g id="node1" class="node">
<title>DataComponent</title>
<polygon fill="#ffffb3" stroke="#000000" points="1149.7591,-122 1042.2409,-122 1042.2409,-86 1149.7591,-86 1149.7591,-122"/>
<text text-anchor="middle" x="1096" y="-99.8" font-family="Times,serif" font-size="14.00" fill="#000000">DataComponent</text>
</g>
<!-- MobiusCesium -->
<g id="node8" class="node">
<title>MobiusCesium</title>
<polygon fill="#8dd3c7" stroke="#000000" points="619.5578,-187 616.5578,-191 595.5578,-191 592.5578,-187 518.4422,-187 518.4422,-151 619.5578,-151 619.5578,-187"/>
<text text-anchor="middle" x="569" y="-164.8" font-family="Times,serif" font-size="14.00" fill="#000000">MobiusCesium</text>
</g>
<!-- DataComponent&#45;&gt;MobiusCesium -->
<g id="edge1" class="edge">
<title>DataComponent&#45;&gt;MobiusCesium</title>
<path fill="none" stroke="#000000" d="M1096,-122.2921C1096,-144.2057 1096,-178 1096,-178 1096,-178 630.0098,-178 630.0098,-178"/>
<polygon fill="#000000" stroke="#000000" points="630.0099,-174.5001 620.0098,-178 630.0098,-181.5001 630.0099,-174.5001"/>
</g>
<!-- DisplayComponent -->
<g id="node2" class="node">
<title>DisplayComponent</title>
<polygon fill="#ffffb3" stroke="#000000" points="1024.3795,-122 899.6205,-122 899.6205,-86 1024.3795,-86 1024.3795,-122"/>
<text text-anchor="middle" x="962" y="-99.8" font-family="Times,serif" font-size="14.00" fill="#000000">DisplayComponent</text>
</g>
<!-- DisplayComponent&#45;&gt;MobiusCesium -->
<g id="edge2" class="edge">
<title>DisplayComponent&#45;&gt;MobiusCesium</title>
<path fill="none" stroke="#000000" d="M962,-122.1061C962,-141.3391 962,-169 962,-169 962,-169 629.5733,-169 629.5733,-169"/>
<polygon fill="#000000" stroke="#000000" points="629.5734,-165.5001 619.5733,-169 629.5733,-172.5001 629.5734,-165.5001"/>
</g>
<!-- MobiuscesiumComponent -->
<g id="node3" class="node">
<title>MobiuscesiumComponent</title>
<polygon fill="#ffffb3" stroke="#000000" points="881.7674,-122 718.2326,-122 718.2326,-86 881.7674,-86 881.7674,-122"/>
<text text-anchor="middle" x="800" y="-99.8" font-family="Times,serif" font-size="14.00" fill="#000000">MobiuscesiumComponent</text>
</g>
<!-- MobiuscesiumComponent&#45;&gt;MobiusCesium -->
<g id="edge3" class="edge">
<title>MobiuscesiumComponent&#45;&gt;MobiusCesium</title>
<path fill="none" stroke="#000000" d="M800,-122.027C800,-138.3976 800,-160 800,-160 800,-160 629.6939,-160 629.6939,-160"/>
<polygon fill="#000000" stroke="#000000" points="629.694,-156.5001 619.6939,-160 629.6939,-163.5001 629.694,-156.5001"/>
</g>
<!-- PublishComponent -->
<g id="node4" class="node">
<title>PublishComponent</title>
<polygon fill="#ffffb3" stroke="#000000" points="699.8413,-122 576.1587,-122 576.1587,-86 699.8413,-86 699.8413,-122"/>
<text text-anchor="middle" x="638" y="-99.8" font-family="Times,serif" font-size="14.00" fill="#000000">PublishComponent</text>
</g>
<!-- PublishComponent&#45;&gt;MobiusCesium -->
<g id="edge4" class="edge">
<title>PublishComponent&#45;&gt;MobiusCesium</title>
<path fill="none" stroke="#000000" d="M598.054,-122.1061C598.054,-122.1061 598.054,-140.991 598.054,-140.991"/>
<polygon fill="#000000" stroke="#000000" points="594.5541,-140.9909 598.054,-150.991 601.5541,-140.991 594.5541,-140.9909"/>
</g>
<!-- SelectComponent -->
<g id="node5" class="node">
<title>SelectComponent</title>
<polygon fill="#ffffb3" stroke="#000000" points="558.5409,-122 443.4591,-122 443.4591,-86 558.5409,-86 558.5409,-122"/>
<text text-anchor="middle" x="501" y="-99.8" font-family="Times,serif" font-size="14.00" fill="#000000">SelectComponent</text>
</g>
<!-- SelectComponent&#45;&gt;MobiusCesium -->
<g id="edge5" class="edge">
<title>SelectComponent&#45;&gt;MobiusCesium</title>
<path fill="none" stroke="#000000" d="M538.4958,-122.1061C538.4958,-122.1061 538.4958,-140.991 538.4958,-140.991"/>
<polygon fill="#000000" stroke="#000000" points="534.9959,-140.9909 538.4958,-150.991 541.9959,-140.991 534.9959,-140.9909"/>
</g>
<!-- SettingComponent -->
<g id="node6" class="node">
<title>SettingComponent</title>
<polygon fill="#ffffb3" stroke="#000000" points="425.5014,-122 304.4986,-122 304.4986,-86 425.5014,-86 425.5014,-122"/>
<text text-anchor="middle" x="365" y="-99.8" font-family="Times,serif" font-size="14.00" fill="#000000">SettingComponent</text>
</g>
<!-- SettingComponent&#45;&gt;MobiusCesium -->
<g id="edge6" class="edge">
<title>SettingComponent&#45;&gt;MobiusCesium</title>
<path fill="none" stroke="#000000" d="M365,-122.027C365,-138.3976 365,-160 365,-160 365,-160 508.3109,-160 508.3109,-160"/>
<polygon fill="#000000" stroke="#000000" points="508.311,-163.5001 518.3109,-160 508.3109,-156.5001 508.311,-163.5001"/>
</g>
<!-- ViewerComponent -->
<g id="node7" class="node">
<title>ViewerComponent</title>
<polygon fill="#ffffb3" stroke="#000000" points="286.0269,-122 163.9731,-122 163.9731,-86 286.0269,-86 286.0269,-122"/>
<text text-anchor="middle" x="225" y="-99.8" font-family="Times,serif" font-size="14.00" fill="#000000">ViewerComponent</text>
</g>
<!-- ViewerComponent&#45;&gt;MobiusCesium -->
<g id="edge7" class="edge">
<title>ViewerComponent&#45;&gt;MobiusCesium</title>
<path fill="none" stroke="#000000" d="M225,-122.1061C225,-141.3391 225,-169 225,-169 225,-169 508.2416,-169 508.2416,-169"/>
<polygon fill="#000000" stroke="#000000" points="508.2417,-172.5001 518.2416,-169 508.2416,-165.5001 508.2417,-172.5001"/>
</g>
<!-- MobiuscesiumComponent  -->
<g id="node9" class="node">
<title>MobiuscesiumComponent </title>
<polygon fill="#fb8072" stroke="#000000" points="652.7674,-252 485.2326,-252 485.2326,-216 652.7674,-216 652.7674,-252"/>
<text text-anchor="middle" x="569" y="-229.8" font-family="Times,serif" font-size="14.00" fill="#000000">MobiuscesiumComponent </text>
</g>
<!-- MobiusCesium&#45;&gt;MobiuscesiumComponent  -->
<g id="edge8" class="edge">
<title>MobiusCesium&#45;&gt;MobiuscesiumComponent </title>
<path fill="none" stroke="#000000" stroke-dasharray="5,2" d="M569,-187.1061C569,-187.1061 569,-205.991 569,-205.991"/>
<polygon fill="#000000" stroke="#000000" points="565.5001,-205.9909 569,-215.991 572.5001,-205.991 565.5001,-205.9909"/>
</g>
<!-- DataService -->
<g id="node10" class="node">
<title>DataService</title>
<ellipse fill="#fdb462" stroke="#000000" cx="82" cy="-104" rx="58.4415" ry="18"/>
<text text-anchor="middle" x="82" y="-99.8" font-family="Times,serif" font-size="14.00" fill="#000000">DataService</text>
</g>
<!-- DataService&#45;&gt;MobiusCesium -->
<g id="edge9" class="edge">
<title>DataService&#45;&gt;MobiusCesium</title>
<path fill="none" stroke="#000000" d="M82,-122.2921C82,-144.2057 82,-178 82,-178 82,-178 508.2607,-178 508.2607,-178"/>
<polygon fill="#000000" stroke="#000000" points="508.2607,-181.5001 518.2607,-178 508.2606,-174.5001 508.2607,-181.5001"/>
</g>
</g>
</svg>
