<?xml version="1.0" encoding="UTF-8" standalone="no"?>
<!DOCTYPE svg PUBLIC "-//W3C//DTD SVG 1.1//EN"
 "http://www.w3.org/Graphics/SVG/1.1/DTD/svg11.dtd">
<!-- Generated by graphviz version 2.40.1 (20161225.0304)
 -->
<!-- Title: dependencies Pages: 1 -->
<svg width="927pt" height="284pt"
 viewBox="0.00 0.00 927.00 284.00" xmlns="http://www.w3.org/2000/svg" xmlns:xlink="http://www.w3.org/1999/xlink">
<g id="graph0" class="graph" transform="scale(1 1) rotate(0) translate(4 280)">
<title>dependencies</title>
<polygon fill="#ffffff" stroke="transparent" points="-4,4 -4,-280 923,-280 923,4 -4,4"/>
<text text-anchor="start" x="438.5091" y="-42.4" font-family="sans-serif" font-weight="bold" font-size="14.00" fill="#000000">Legend</text>
<polygon fill="#ffffb3" stroke="transparent" points="225.5,-10 225.5,-30 245.5,-30 245.5,-10 225.5,-10"/>
<text text-anchor="start" x="249.129" y="-15.4" font-family="sans-serif" font-size="14.00" fill="#000000"> &#160;Declarations</text>
<polygon fill="#8dd3c7" stroke="transparent" points="338.5,-10 338.5,-30 358.5,-30 358.5,-10 338.5,-10"/>
<text text-anchor="start" x="362.2251" y="-15.4" font-family="sans-serif" font-size="14.00" fill="#000000"> &#160;Module</text>
<polygon fill="#80b1d3" stroke="transparent" points="424.5,-10 424.5,-30 444.5,-30 444.5,-10 424.5,-10"/>
<text text-anchor="start" x="448.2812" y="-15.4" font-family="sans-serif" font-size="14.00" fill="#000000"> &#160;Bootstrap</text>
<polygon fill="#fdb462" stroke="transparent" points="521.5,-10 521.5,-30 541.5,-30 541.5,-10 521.5,-10"/>
<text text-anchor="start" x="545.1732" y="-15.4" font-family="sans-serif" font-size="14.00" fill="#000000"> &#160;Providers</text>
<polygon fill="#fb8072" stroke="transparent" points="617.5,-10 617.5,-30 637.5,-30 637.5,-10 617.5,-10"/>
<text text-anchor="start" x="641.2258" y="-15.4" font-family="sans-serif" font-size="14.00" fill="#000000"> &#160;Exports</text>
<g id="clust1" class="cluster">
<title>cluster_GSViewer</title>
<polygon fill="none" stroke="#000000" stroke-dasharray="1,5" points="8,-70 8,-268 911,-268 911,-70 8,-70"/>
</g>
<g id="clust2" class="cluster">
<title>cluster_GSViewer_declarations</title>
<polygon fill="none" stroke="#000000" points="156,-78 156,-130 903,-130 903,-78 156,-78"/>
</g>
<g id="clust9" class="cluster">
<title>cluster_GSViewer_exports</title>
<polygon fill="none" stroke="#000000" points="378,-208 378,-260 538,-260 538,-208 378,-208"/>
</g>
<g id="clust11" class="cluster">
<title>cluster_GSViewer_providers</title>
<polygon fill="none" stroke="#000000" points="16,-78 16,-130 148,-130 148,-78 16,-78"/>
</g>
<!-- GSViewerComponent -->
<g id="node1" class="node">
<title>GSViewerComponent</title>
<polygon fill="#ffffb3" stroke="#000000" points="895.4158,-122 754.5842,-122 754.5842,-86 895.4158,-86 895.4158,-122"/>
<text text-anchor="middle" x="825" y="-99.8" font-family="Times,serif" font-size="14.00" fill="#000000">GSViewerComponent</text>
</g>
<!-- GSViewer -->
<g id="node6" class="node">
<title>GSViewer</title>
<polygon fill="#8dd3c7" stroke="#000000" points="495.5828,-187 492.5828,-191 471.5828,-191 468.5828,-187 420.4172,-187 420.4172,-151 495.5828,-151 495.5828,-187"/>
<text text-anchor="middle" x="458" y="-164.8" font-family="Times,serif" font-size="14.00" fill="#000000">GSViewer</text>
</g>
<!-- GSViewerComponent&#45;&gt;GSViewer -->
<g id="edge1" class="edge">
<title>GSViewerComponent&#45;&gt;GSViewer</title>
<path fill="none" stroke="#000000" d="M825,-122.2843C825,-143.3211 825,-175 825,-175 825,-175 505.5507,-175 505.5507,-175"/>
<polygon fill="#000000" stroke="#000000" points="505.5508,-171.5001 495.5507,-175 505.5507,-178.5001 505.5508,-171.5001"/>
</g>
<!-- GroupsComponent -->
<g id="node2" class="node">
<title>GroupsComponent</title>
<polygon fill="#ffffb3" stroke="#000000" points="737.045,-122 614.955,-122 614.955,-86 737.045,-86 737.045,-122"/>
<text text-anchor="middle" x="676" y="-99.8" font-family="Times,serif" font-size="14.00" fill="#000000">GroupsComponent</text>
</g>
<!-- GroupsComponent&#45;&gt;GSViewer -->
<g id="edge2" class="edge">
<title>GroupsComponent&#45;&gt;GSViewer</title>
<path fill="none" stroke="#000000" d="M676,-122.0225C676,-139.3734 676,-163 676,-163 676,-163 505.9727,-163 505.9727,-163"/>
<polygon fill="#000000" stroke="#000000" points="505.9727,-159.5001 495.9727,-163 505.9727,-166.5001 505.9727,-159.5001"/>
</g>
<!-- SettingComponent -->
<g id="node3" class="node">
<title>SettingComponent</title>
<polygon fill="#ffffb3" stroke="#000000" points="596.5014,-122 475.4986,-122 475.4986,-86 596.5014,-86 596.5014,-122"/>
<text text-anchor="middle" x="536" y="-99.8" font-family="Times,serif" font-size="14.00" fill="#000000">SettingComponent</text>
</g>
<!-- SettingComponent&#45;&gt;GSViewer -->
<g id="edge3" class="edge">
<title>SettingComponent&#45;&gt;GSViewer</title>
<path fill="none" stroke="#000000" d="M485.5204,-122.1061C485.5204,-122.1061 485.5204,-140.991 485.5204,-140.991"/>
<polygon fill="#000000" stroke="#000000" points="482.0204,-140.9909 485.5204,-150.991 489.0204,-140.991 482.0204,-140.9909"/>
</g>
<!-- ToolwindowComponent -->
<g id="node4" class="node">
<title>ToolwindowComponent</title>
<polygon fill="#ffffb3" stroke="#000000" points="457.3794,-122 304.6206,-122 304.6206,-86 457.3794,-86 457.3794,-122"/>
<text text-anchor="middle" x="381" y="-99.8" font-family="Times,serif" font-size="14.00" fill="#000000">ToolwindowComponent</text>
</g>
<!-- ToolwindowComponent&#45;&gt;GSViewer -->
<g id="edge4" class="edge">
<title>ToolwindowComponent&#45;&gt;GSViewer</title>
<path fill="none" stroke="#000000" d="M438.9492,-122.1061C438.9492,-122.1061 438.9492,-140.991 438.9492,-140.991"/>
<polygon fill="#000000" stroke="#000000" points="435.4492,-140.9909 438.9492,-150.991 442.4492,-140.991 435.4492,-140.9909"/>
</g>
<!-- ViewerComponent -->
<g id="node5" class="node">
<title>ViewerComponent</title>
<polygon fill="#ffffb3" stroke="#000000" points="286.0269,-122 163.9731,-122 163.9731,-86 286.0269,-86 286.0269,-122"/>
<text text-anchor="middle" x="225" y="-99.8" font-family="Times,serif" font-size="14.00" fill="#000000">ViewerComponent</text>
</g>
<!-- ViewerComponent&#45;&gt;GSViewer -->
<g id="edge5" class="edge">
<title>ViewerComponent&#45;&gt;GSViewer</title>
<path fill="none" stroke="#000000" d="M225,-122.0225C225,-139.3734 225,-163 225,-163 225,-163 410.3056,-163 410.3056,-163"/>
<polygon fill="#000000" stroke="#000000" points="410.3056,-166.5001 420.3056,-163 410.3055,-159.5001 410.3056,-166.5001"/>
</g>
<!-- GSViewerComponent  -->
<g id="node7" class="node">
<title>GSViewerComponent </title>
<polygon fill="#fb8072" stroke="#000000" points="529.9152,-252 386.0848,-252 386.0848,-216 529.9152,-216 529.9152,-252"/>
<text text-anchor="middle" x="458" y="-229.8" font-family="Times,serif" font-size="14.00" fill="#000000">GSViewerComponent </text>
</g>
<!-- GSViewer&#45;&gt;GSViewerComponent  -->
<g id="edge6" class="edge">
<title>GSViewer&#45;&gt;GSViewerComponent </title>
<path fill="none" stroke="#000000" stroke-dasharray="5,2" d="M458,-187.1061C458,-187.1061 458,-205.991 458,-205.991"/>
<polygon fill="#000000" stroke="#000000" points="454.5001,-205.9909 458,-215.991 461.5001,-205.991 454.5001,-205.9909"/>
</g>
<!-- DataService -->
<g id="node8" class="node">
<title>DataService</title>
<ellipse fill="#fdb462" stroke="#000000" cx="82" cy="-104" rx="58.4415" ry="18"/>
<text text-anchor="middle" x="82" y="-99.8" font-family="Times,serif" font-size="14.00" fill="#000000">DataService</text>
</g>
<!-- DataService&#45;&gt;GSViewer -->
<g id="edge7" class="edge">
<title>DataService&#45;&gt;GSViewer</title>
<path fill="none" stroke="#000000" d="M82,-122.2843C82,-143.3211 82,-175 82,-175 82,-175 410.2261,-175 410.2261,-175"/>
<polygon fill="#000000" stroke="#000000" points="410.2262,-178.5001 420.2261,-175 410.2261,-171.5001 410.2262,-178.5001"/>
</g>
</g>
</svg>
