<?xml version="1.0" encoding="UTF-8" standalone="no"?>
<!DOCTYPE svg PUBLIC "-//W3C//DTD SVG 1.1//EN"
 "http://www.w3.org/Graphics/SVG/1.1/DTD/svg11.dtd">
<!-- Generated by graphviz version 2.40.1 (20161225.0304)
 -->
<!-- Title: dependencies Pages: 1 -->
<svg width="7508pt" height="284pt"
 viewBox="0.00 0.00 7508.00 284.00" xmlns="http://www.w3.org/2000/svg" xmlns:xlink="http://www.w3.org/1999/xlink">
<g id="graph0" class="graph" transform="scale(1 1) rotate(0) translate(4 280)">
<title>dependencies</title>
<polygon fill="#ffffff" stroke="transparent" points="-4,4 -4,-280 7504,-280 7504,4 -4,4"/>
<text text-anchor="start" x="3729.0091" y="-42.4" font-family="sans-serif" font-weight="bold" font-size="14.00" fill="#000000">Legend</text>
<polygon fill="#ffffb3" stroke="transparent" points="3516,-10 3516,-30 3536,-30 3536,-10 3516,-10"/>
<text text-anchor="start" x="3539.629" y="-15.4" font-family="sans-serif" font-size="14.00" fill="#000000"> &#160;Declarations</text>
<polygon fill="#8dd3c7" stroke="transparent" points="3629,-10 3629,-30 3649,-30 3649,-10 3629,-10"/>
<text text-anchor="start" x="3652.7251" y="-15.4" font-family="sans-serif" font-size="14.00" fill="#000000"> &#160;Module</text>
<polygon fill="#80b1d3" stroke="transparent" points="3715,-10 3715,-30 3735,-30 3735,-10 3715,-10"/>
<text text-anchor="start" x="3738.7812" y="-15.4" font-family="sans-serif" font-size="14.00" fill="#000000"> &#160;Bootstrap</text>
<polygon fill="#fdb462" stroke="transparent" points="3812,-10 3812,-30 3832,-30 3832,-10 3812,-10"/>
<text text-anchor="start" x="3835.6732" y="-15.4" font-family="sans-serif" font-size="14.00" fill="#000000"> &#160;Providers</text>
<polygon fill="#fb8072" stroke="transparent" points="3908,-10 3908,-30 3928,-30 3928,-10 3908,-10"/>
<text text-anchor="start" x="3931.7258" y="-15.4" font-family="sans-serif" font-size="14.00" fill="#000000"> &#160;Exports</text>
<g id="clust1" class="cluster">
<title>cluster_AppModule</title>
<polygon fill="none" stroke="#000000" stroke-dasharray="1,5" points="8,-70 8,-268 7492,-268 7492,-70 8,-70"/>
</g>
<g id="clust2" class="cluster">
<title>cluster_AppModule_declarations</title>
<polygon fill="none" stroke="#000000" points="1711,-78 1711,-130 7484,-130 7484,-78 1711,-78"/>
</g>
<g id="clust38" class="cluster">
<title>cluster_AppModule_imports</title>
<polygon fill="none" stroke="#000000" points="1324,-78 1324,-130 1703,-130 1703,-78 1324,-78"/>
</g>
<g id="clust40" class="cluster">
<title>cluster_AppModule_bootstrap</title>
<polygon fill="none" stroke="#000000" points="3702,-208 3702,-260 3826,-260 3826,-208 3702,-208"/>
</g>
<g id="clust41" class="cluster">
<title>cluster_AppModule_providers</title>
<polygon fill="none" stroke="#000000" points="16,-78 16,-130 1316,-130 1316,-78 16,-78"/>
</g>
<!-- AppComponent -->
<g id="node1" class="node">
<title>AppComponent</title>
<polygon fill="#ffffb3" stroke="#000000" points="7475.9399,-122 7370.0601,-122 7370.0601,-86 7475.9399,-86 7475.9399,-122"/>
<text text-anchor="middle" x="7423" y="-99.8" font-family="Times,serif" font-size="14.00" fill="#000000">AppComponent</text>
</g>
<!-- AppModule -->
<g id="node36" class="node">
<title>AppModule</title>
<polygon fill="#8dd3c7" stroke="#000000" points="3805.6571,-187 3802.6571,-191 3781.6571,-191 3778.6571,-187 3722.3429,-187 3722.3429,-151 3805.6571,-151 3805.6571,-187"/>
<text text-anchor="middle" x="3764" y="-164.8" font-family="Times,serif" font-size="14.00" fill="#000000">AppModule</text>
</g>
<!-- AppComponent&#45;&gt;AppModule -->
<g id="edge1" class="edge">
<title>AppComponent&#45;&gt;AppModule</title>
<path fill="none" stroke="#000000" d="M7423,-122.1985C7423,-146.3563 7423,-186 7423,-186 7423,-186 3815.7227,-186 3815.7227,-186"/>
<polygon fill="#000000" stroke="#000000" points="3815.7227,-182.5001 3805.7227,-186 3815.7226,-189.5001 3815.7227,-182.5001"/>
</g>
<!-- CesiumViewerComponent -->
<g id="node2" class="node">
<title>CesiumViewerComponent</title>
<polygon fill="#ffffb3" stroke="#000000" points="7352.8033,-122 7187.1967,-122 7187.1967,-86 7352.8033,-86 7352.8033,-122"/>
<text text-anchor="middle" x="7270" y="-99.8" font-family="Times,serif" font-size="14.00" fill="#000000">CesiumViewerComponent</text>
</g>
<!-- CesiumViewerComponent&#45;&gt;AppModule -->
<g id="edge2" class="edge">
<title>CesiumViewerComponent&#45;&gt;AppModule</title>
<path fill="none" stroke="#000000" d="M7270,-122.1532C7270,-145.7566 7270,-184 7270,-184 7270,-184 3815.8165,-184 3815.8165,-184"/>
<polygon fill="#000000" stroke="#000000" points="3815.8165,-180.5001 3805.8165,-184 3815.8164,-187.5001 3815.8165,-180.5001"/>
</g>
<!-- CodeViewerComponent -->
<g id="node3" class="node">
<title>CodeViewerComponent</title>
<polygon fill="#ffffb3" stroke="#000000" points="7169.0772,-122 7016.9228,-122 7016.9228,-86 7169.0772,-86 7169.0772,-122"/>
<text text-anchor="middle" x="7093" y="-99.8" font-family="Times,serif" font-size="14.00" fill="#000000">CodeViewerComponent</text>
</g>
<!-- CodeViewerComponent&#45;&gt;AppModule -->
<g id="edge3" class="edge">
<title>CodeViewerComponent&#45;&gt;AppModule</title>
<path fill="none" stroke="#000000" d="M7093,-122.3228C7093,-145.6602 7093,-183 7093,-183 7093,-183 3815.7891,-183 3815.7891,-183"/>
<polygon fill="#000000" stroke="#000000" points="3815.7891,-179.5001 3805.7891,-183 3815.789,-186.5001 3815.7891,-179.5001"/>
</g>
<!-- ConsoleComponent -->
<g id="node4" class="node">
<title>ConsoleComponent</title>
<polygon fill="#ffffb3" stroke="#000000" points="6998.719,-122 6871.281,-122 6871.281,-86 6998.719,-86 6998.719,-122"/>
<text text-anchor="middle" x="6935" y="-99.8" font-family="Times,serif" font-size="14.00" fill="#000000">ConsoleComponent</text>
</g>
<!-- ConsoleComponent&#45;&gt;AppModule -->
<g id="edge4" class="edge">
<title>ConsoleComponent&#45;&gt;AppModule</title>
<path fill="none" stroke="#000000" d="M6935,-122.2479C6935,-145.0179 6935,-181 6935,-181 6935,-181 3815.8387,-181 3815.8387,-181"/>
<polygon fill="#000000" stroke="#000000" points="3815.8387,-177.5001 3805.8387,-181 3815.8387,-184.5001 3815.8387,-177.5001"/>
</g>
<!-- EditorComponent -->
<g id="node5" class="node">
<title>EditorComponent</title>
<polygon fill="#ffffb3" stroke="#000000" points="6853.3273,-122 6736.6727,-122 6736.6727,-86 6853.3273,-86 6853.3273,-122"/>
<text text-anchor="middle" x="6795" y="-99.8" font-family="Times,serif" font-size="14.00" fill="#000000">EditorComponent</text>
</g>
<!-- EditorComponent&#45;&gt;AppModule -->
<g id="edge5" class="edge">
<title>EditorComponent&#45;&gt;AppModule</title>
<path fill="none" stroke="#000000" d="M6795,-122.0109C6795,-144.4852 6795,-180 6795,-180 6795,-180 3815.6937,-180 3815.6937,-180"/>
<polygon fill="#000000" stroke="#000000" points="3815.6937,-176.5001 3805.6937,-180 3815.6937,-183.5001 3815.6937,-176.5001"/>
</g>
<!-- FileLoadDialogComponent -->
<g id="node6" class="node">
<title>FileLoadDialogComponent</title>
<polygon fill="#ffffb3" stroke="#000000" points="6718.9804,-122 6549.0196,-122 6549.0196,-86 6718.9804,-86 6718.9804,-122"/>
<text text-anchor="middle" x="6634" y="-99.8" font-family="Times,serif" font-size="14.00" fill="#000000">FileLoadDialogComponent</text>
</g>
<!-- FileLoadDialogComponent&#45;&gt;AppModule -->
<g id="edge6" class="edge">
<title>FileLoadDialogComponent&#45;&gt;AppModule</title>
<path fill="none" stroke="#000000" d="M6634,-122.2921C6634,-144.2057 6634,-178 6634,-178 6634,-178 3815.6775,-178 3815.6775,-178"/>
<polygon fill="#000000" stroke="#000000" points="3815.6776,-174.5001 3805.6775,-178 3815.6775,-181.5001 3815.6776,-174.5001"/>
</g>
<!-- FlowchartControlsComponent -->
<g id="node7" class="node">
<title>FlowchartControlsComponent</title>
<polygon fill="#ffffb3" stroke="#000000" points="6531.3159,-122 6344.6841,-122 6344.6841,-86 6531.3159,-86 6531.3159,-122"/>
<text text-anchor="middle" x="6438" y="-99.8" font-family="Times,serif" font-size="14.00" fill="#000000">FlowchartControlsComponent</text>
</g>
<!-- FlowchartControlsComponent&#45;&gt;AppModule -->
<g id="edge7" class="edge">
<title>FlowchartControlsComponent&#45;&gt;AppModule</title>
<path fill="none" stroke="#000000" d="M6438,-122.0449C6438,-143.6623 6438,-177 6438,-177 6438,-177 3815.7334,-177 3815.7334,-177"/>
<polygon fill="#000000" stroke="#000000" points="3815.7335,-173.5001 3805.7334,-177 3815.7334,-180.5001 3815.7335,-173.5001"/>
</g>
<!-- FlowchartViewerComponent -->
<g id="node8" class="node">
<title>FlowchartViewerComponent</title>
<polygon fill="#ffffb3" stroke="#000000" points="6326.7864,-122 6147.2136,-122 6147.2136,-86 6326.7864,-86 6326.7864,-122"/>
<text text-anchor="middle" x="6237" y="-99.8" font-family="Times,serif" font-size="14.00" fill="#000000">FlowchartViewerComponent</text>
</g>
<!-- FlowchartViewerComponent&#45;&gt;AppModule -->
<g id="edge8" class="edge">
<title>FlowchartViewerComponent&#45;&gt;AppModule</title>
<path fill="none" stroke="#000000" d="M6237,-122.2843C6237,-143.3211 6237,-175 6237,-175 6237,-175 3815.8859,-175 3815.8859,-175"/>
<polygon fill="#000000" stroke="#000000" points="3815.8859,-171.5001 3805.8859,-175 3815.8859,-178.5001 3815.8859,-171.5001"/>
</g>
<!-- GeometryViewerComponent -->
<g id="node9" class="node">
<title>GeometryViewerComponent</title>
<polygon fill="#ffffb3" stroke="#000000" points="6129.0043,-122 5950.9957,-122 5950.9957,-86 6129.0043,-86 6129.0043,-122"/>
<text text-anchor="middle" x="6040" y="-99.8" font-family="Times,serif" font-size="14.00" fill="#000000">GeometryViewerComponent</text>
</g>
<!-- GeometryViewerComponent&#45;&gt;AppModule -->
<g id="edge9" class="edge">
<title>GeometryViewerComponent&#45;&gt;AppModule</title>
<path fill="none" stroke="#000000" d="M6040,-122.1289C6040,-142.5724 6040,-173 6040,-173 6040,-173 3815.9397,-173 3815.9397,-173"/>
<polygon fill="#000000" stroke="#000000" points="3815.9397,-169.5001 3805.9397,-173 3815.9397,-176.5001 3815.9397,-169.5001"/>
</g>
<!-- GraphEdgeComponent -->
<g id="node10" class="node">
<title>GraphEdgeComponent</title>
<polygon fill="#ffffb3" stroke="#000000" points="5932.5814,-122 5787.4186,-122 5787.4186,-86 5932.5814,-86 5932.5814,-122"/>
<text text-anchor="middle" x="5860" y="-99.8" font-family="Times,serif" font-size="14.00" fill="#000000">GraphEdgeComponent</text>
</g>
<!-- GraphEdgeComponent&#45;&gt;AppModule -->
<g id="edge10" class="edge">
<title>GraphEdgeComponent&#45;&gt;AppModule</title>
<path fill="none" stroke="#000000" d="M5860,-122.2228C5860,-142.3652 5860,-172 5860,-172 5860,-172 3815.8684,-172 3815.8684,-172"/>
<polygon fill="#000000" stroke="#000000" points="3815.8684,-168.5001 3805.8684,-172 3815.8684,-175.5001 3815.8684,-168.5001"/>
</g>
<!-- HelpFundamentals -->
<g id="node11" class="node">
<title>HelpFundamentals</title>
<polygon fill="#ffffb3" stroke="#000000" points="5769.7548,-122 5648.2452,-122 5648.2452,-86 5769.7548,-86 5769.7548,-122"/>
<text text-anchor="middle" x="5709" y="-99.8" font-family="Times,serif" font-size="14.00" fill="#000000">HelpFundamentals</text>
</g>
<!-- HelpFundamentals&#45;&gt;AppModule -->
<g id="edge11" class="edge">
<title>HelpFundamentals&#45;&gt;AppModule</title>
<path fill="none" stroke="#000000" d="M5709,-122.0348C5709,-141.5762 5709,-170 5709,-170 5709,-170 3815.9773,-170 3815.9773,-170"/>
<polygon fill="#000000" stroke="#000000" points="3815.9773,-166.5001 3805.9773,-170 3815.9772,-173.5001 3815.9773,-166.5001"/>
</g>
<!-- HelpModel -->
<g id="node12" class="node">
<title>HelpModel</title>
<polygon fill="#ffffb3" stroke="#000000" points="5629.762,-122 5550.238,-122 5550.238,-86 5629.762,-86 5629.762,-122"/>
<text text-anchor="middle" x="5590" y="-99.8" font-family="Times,serif" font-size="14.00" fill="#000000">HelpModel</text>
</g>
<!-- HelpModel&#45;&gt;AppModule -->
<g id="edge12" class="edge">
<title>HelpModel&#45;&gt;AppModule</title>
<path fill="none" stroke="#000000" d="M5590,-122.1061C5590,-141.3391 5590,-169 5590,-169 5590,-169 3816.0079,-169 3816.0079,-169"/>
<polygon fill="#000000" stroke="#000000" points="3816.008,-165.5001 3806.0079,-169 3816.0079,-172.5001 3816.008,-165.5001"/>
</g>
<!-- HelpViewerComponent -->
<g id="node13" class="node">
<title>HelpViewerComponent</title>
<polygon fill="#ffffb3" stroke="#000000" points="5531.738,-122 5382.262,-122 5382.262,-86 5531.738,-86 5531.738,-122"/>
<text text-anchor="middle" x="5457" y="-99.8" font-family="Times,serif" font-size="14.00" fill="#000000">HelpViewerComponent</text>
</g>
<!-- HelpViewerComponent&#45;&gt;AppModule -->
<g id="edge13" class="edge">
<title>HelpViewerComponent&#45;&gt;AppModule</title>
<path fill="none" stroke="#000000" d="M5457,-122.2222C5457,-140.8285 5457,-167 5457,-167 5457,-167 3815.8497,-167 3815.8497,-167"/>
<polygon fill="#000000" stroke="#000000" points="3815.8497,-163.5001 3805.8497,-167 3815.8496,-170.5001 3815.8497,-163.5001"/>
</g>
<!-- InfoViewerComponent -->
<g id="node14" class="node">
<title>InfoViewerComponent</title>
<polygon fill="#ffffb3" stroke="#000000" points="5363.8473,-122 5218.1527,-122 5218.1527,-86 5363.8473,-86 5363.8473,-122"/>
<text text-anchor="middle" x="5291" y="-99.8" font-family="Times,serif" font-size="14.00" fill="#000000">InfoViewerComponent</text>
</g>
<!-- InfoViewerComponent&#45;&gt;AppModule -->
<g id="edge14" class="edge">
<title>InfoViewerComponent&#45;&gt;AppModule</title>
<path fill="none" stroke="#000000" d="M5291,-122.2667C5291,-140.5552 5291,-166 5291,-166 5291,-166 3816.0341,-166 3816.0341,-166"/>
<polygon fill="#000000" stroke="#000000" points="3816.0341,-162.5001 3806.0341,-166 3816.0341,-169.5001 3816.0341,-162.5001"/>
</g>
<!-- LandingComponent -->
<g id="node15" class="node">
<title>LandingComponent</title>
<polygon fill="#ffffb3" stroke="#000000" points="5199.9902,-122 5072.0098,-122 5072.0098,-86 5199.9902,-86 5199.9902,-122"/>
<text text-anchor="middle" x="5136" y="-99.8" font-family="Times,serif" font-size="14.00" fill="#000000">LandingComponent</text>
</g>
<!-- LandingComponent&#45;&gt;AppModule -->
<g id="edge15" class="edge">
<title>LandingComponent&#45;&gt;AppModule</title>
<path fill="none" stroke="#000000" d="M5136,-122.002C5136,-139.6754 5136,-164 5136,-164 5136,-164 3815.8104,-164 3815.8104,-164"/>
<polygon fill="#000000" stroke="#000000" points="3815.8104,-160.5001 3805.8104,-164 3815.8103,-167.5001 3815.8104,-160.5001"/>
</g>
<!-- MenuComponent -->
<g id="node16" class="node">
<title>MenuComponent</title>
<polygon fill="#ffffb3" stroke="#000000" points="5053.9916,-122 4940.0084,-122 4940.0084,-86 5053.9916,-86 5053.9916,-122"/>
<text text-anchor="middle" x="4997" y="-99.8" font-family="Times,serif" font-size="14.00" fill="#000000">MenuComponent</text>
</g>
<!-- MenuComponent&#45;&gt;AppModule -->
<g id="edge16" class="edge">
<title>MenuComponent&#45;&gt;AppModule</title>
<path fill="none" stroke="#000000" d="M4997,-122.0336C4997,-139.0597 4997,-162 4997,-162 4997,-162 3815.7306,-162 3815.7306,-162"/>
<polygon fill="#000000" stroke="#000000" points="3815.7307,-158.5001 3805.7306,-162 3815.7306,-165.5001 3815.7307,-158.5001"/>
</g>
<!-- MobiusAbout -->
<g id="node17" class="node">
<title>MobiusAbout</title>
<polygon fill="#ffffb3" stroke="#000000" points="4921.7773,-122 4828.2227,-122 4828.2227,-86 4921.7773,-86 4921.7773,-122"/>
<text text-anchor="middle" x="4875" y="-99.8" font-family="Times,serif" font-size="14.00" fill="#000000">MobiusAbout</text>
</g>
<!-- MobiusAbout&#45;&gt;AppModule -->
<g id="edge17" class="edge">
<title>MobiusAbout&#45;&gt;AppModule</title>
<path fill="none" stroke="#000000" d="M4875,-122.0352C4875,-138.7344 4875,-161 4875,-161 4875,-161 3815.8597,-161 3815.8597,-161"/>
<polygon fill="#000000" stroke="#000000" points="3815.8598,-157.5001 3805.8597,-161 3815.8597,-164.5001 3815.8598,-157.5001"/>
</g>
<!-- MobiusEditorComponent -->
<g id="node18" class="node">
<title>MobiusEditorComponent</title>
<polygon fill="#ffffb3" stroke="#000000" points="4810.6066,-122 4651.3934,-122 4651.3934,-86 4810.6066,-86 4810.6066,-122"/>
<text text-anchor="middle" x="4731" y="-99.8" font-family="Times,serif" font-size="14.00" fill="#000000">MobiusEditorComponent</text>
</g>
<!-- MobiusEditorComponent&#45;&gt;AppModule -->
<g id="edge18" class="edge">
<title>MobiusEditorComponent&#45;&gt;AppModule</title>
<path fill="none" stroke="#000000" d="M4731,-122.0091C4731,-138.0494 4731,-159 4731,-159 4731,-159 3815.8612,-159 3815.8612,-159"/>
<polygon fill="#000000" stroke="#000000" points="3815.8612,-155.5001 3805.8612,-159 3815.8611,-162.5001 3815.8612,-155.5001"/>
</g>
<!-- MobiusGalleryComponent -->
<g id="node19" class="node">
<title>MobiusGalleryComponent</title>
<polygon fill="#ffffb3" stroke="#000000" points="4633.0898,-122 4466.9102,-122 4466.9102,-86 4633.0898,-86 4633.0898,-122"/>
<text text-anchor="middle" x="4550" y="-99.8" font-family="Times,serif" font-size="14.00" fill="#000000">MobiusGalleryComponent</text>
</g>
<!-- MobiusGalleryComponent&#45;&gt;AppModule -->
<g id="edge19" class="edge">
<title>MobiusGalleryComponent&#45;&gt;AppModule</title>
<path fill="none" stroke="#000000" d="M4550,-122.2819C4550,-137.9478 4550,-158 4550,-158 4550,-158 3815.7038,-158 3815.7038,-158"/>
<polygon fill="#000000" stroke="#000000" points="3815.7039,-154.5001 3805.7038,-158 3815.7038,-161.5001 3815.7039,-154.5001"/>
</g>
<!-- MobiusViewerComponent -->
<g id="node20" class="node">
<title>MobiusViewerComponent</title>
<polygon fill="#ffffb3" stroke="#000000" points="4448.8061,-122 4283.1939,-122 4283.1939,-86 4448.8061,-86 4448.8061,-122"/>
<text text-anchor="middle" x="4366" y="-99.8" font-family="Times,serif" font-size="14.00" fill="#000000">MobiusViewerComponent</text>
</g>
<!-- MobiusViewerComponent&#45;&gt;AppModule -->
<g id="edge20" class="edge">
<title>MobiusViewerComponent&#45;&gt;AppModule</title>
<path fill="none" stroke="#000000" d="M4366,-122.1871C4366,-137.1824 4366,-156 4366,-156 4366,-156 3815.8535,-156 3815.8535,-156"/>
<polygon fill="#000000" stroke="#000000" points="3815.8536,-152.5001 3805.8535,-156 3815.8535,-159.5001 3815.8536,-152.5001"/>
</g>
<!-- ModuleViewerComponent -->
<g id="node21" class="node">
<title>ModuleViewerComponent</title>
<polygon fill="#ffffb3" stroke="#000000" points="4265.0758,-122 4098.9242,-122 4098.9242,-86 4265.0758,-86 4265.0758,-122"/>
<text text-anchor="middle" x="4182" y="-99.8" font-family="Times,serif" font-size="14.00" fill="#000000">ModuleViewerComponent</text>
</g>
<!-- ModuleViewerComponent&#45;&gt;AppModule -->
<g id="edge21" class="edge">
<title>ModuleViewerComponent&#45;&gt;AppModule</title>
<path fill="none" stroke="#000000" d="M4182,-122.1243C4182,-136.7832 4182,-155 4182,-155 4182,-155 3815.9933,-155 3815.9933,-155"/>
<polygon fill="#000000" stroke="#000000" points="3815.9933,-151.5001 3805.9933,-155 3815.9932,-158.5001 3815.9933,-151.5001"/>
</g>
<!-- ModuleboxComponent -->
<g id="node22" class="node">
<title>ModuleboxComponent</title>
<polygon fill="#ffffb3" stroke="#000000" points="4080.8822,-122 3935.1178,-122 3935.1178,-86 4080.8822,-86 4080.8822,-122"/>
<text text-anchor="middle" x="4008" y="-99.8" font-family="Times,serif" font-size="14.00" fill="#000000">ModuleboxComponent</text>
</g>
<!-- ModuleboxComponent&#45;&gt;AppModule -->
<g id="edge22" class="edge">
<title>ModuleboxComponent&#45;&gt;AppModule</title>
<path fill="none" stroke="#000000" d="M4008,-122.2458C4008,-136.1772 4008,-153 4008,-153 4008,-153 3815.6679,-153 3815.6679,-153"/>
<polygon fill="#000000" stroke="#000000" points="3815.6679,-149.5001 3805.6679,-153 3815.6678,-156.5001 3815.6679,-149.5001"/>
</g>
<!-- NodeLibraryComponent -->
<g id="node23" class="node">
<title>NodeLibraryComponent</title>
<polygon fill="#ffffb3" stroke="#000000" points="3916.633,-122 3763.367,-122 3763.367,-86 3916.633,-86 3916.633,-122"/>
<text text-anchor="middle" x="3840" y="-99.8" font-family="Times,serif" font-size="14.00" fill="#000000">NodeLibraryComponent</text>
</g>
<!-- NodeLibraryComponent&#45;&gt;AppModule -->
<g id="edge23" class="edge">
<title>NodeLibraryComponent&#45;&gt;AppModule</title>
<path fill="none" stroke="#000000" d="M3784.506,-122.1061C3784.506,-122.1061 3784.506,-140.991 3784.506,-140.991"/>
<polygon fill="#000000" stroke="#000000" points="3781.006,-140.9909 3784.506,-150.991 3788.006,-140.991 3781.006,-140.9909"/>
</g>
<!-- PanelComponent -->
<g id="node24" class="node">
<title>PanelComponent</title>
<polygon fill="#ffffb3" stroke="#000000" points="3745.4356,-122 3632.5644,-122 3632.5644,-86 3745.4356,-86 3745.4356,-122"/>
<text text-anchor="middle" x="3689" y="-99.8" font-family="Times,serif" font-size="14.00" fill="#000000">PanelComponent</text>
</g>
<!-- PanelComponent&#45;&gt;AppModule -->
<g id="edge24" class="edge">
<title>PanelComponent&#45;&gt;AppModule</title>
<path fill="none" stroke="#000000" d="M3733.6946,-122.1061C3733.6946,-122.1061 3733.6946,-140.991 3733.6946,-140.991"/>
<polygon fill="#000000" stroke="#000000" points="3730.1947,-140.9909 3733.6946,-150.991 3737.1947,-140.991 3730.1947,-140.9909"/>
</g>
<!-- ParameterEditorComponent -->
<g id="node25" class="node">
<title>ParameterEditorComponent</title>
<polygon fill="#ffffb3" stroke="#000000" points="3614.5702,-122 3441.4298,-122 3441.4298,-86 3614.5702,-86 3614.5702,-122"/>
<text text-anchor="middle" x="3528" y="-99.8" font-family="Times,serif" font-size="14.00" fill="#000000">ParameterEditorComponent</text>
</g>
<!-- ParameterEditorComponent&#45;&gt;AppModule -->
<g id="edge25" class="edge">
<title>ParameterEditorComponent&#45;&gt;AppModule</title>
<path fill="none" stroke="#000000" d="M3528,-122.2458C3528,-136.1772 3528,-153 3528,-153 3528,-153 3712.0799,-153 3712.0799,-153"/>
<polygon fill="#000000" stroke="#000000" points="3712.0799,-156.5001 3722.0799,-153 3712.0798,-149.5001 3712.0799,-156.5001"/>
</g>
<!-- ParameterSettingsDialogComponent -->
<g id="node26" class="node">
<title>ParameterSettingsDialogComponent</title>
<polygon fill="#ffffb3" stroke="#000000" points="3423.792,-122 3202.208,-122 3202.208,-86 3423.792,-86 3423.792,-122"/>
<text text-anchor="middle" x="3313" y="-99.8" font-family="Times,serif" font-size="14.00" fill="#000000">ParameterSettingsDialogComponent</text>
</g>
<!-- ParameterSettingsDialogComponent&#45;&gt;AppModule -->
<g id="edge26" class="edge">
<title>ParameterSettingsDialogComponent&#45;&gt;AppModule</title>
<path fill="none" stroke="#000000" d="M3313,-122.1243C3313,-136.7832 3313,-155 3313,-155 3313,-155 3711.976,-155 3711.976,-155"/>
<polygon fill="#000000" stroke="#000000" points="3711.976,-158.5001 3721.976,-155 3711.976,-151.5001 3711.976,-158.5001"/>
</g>
<!-- ParameterViewerComponent -->
<g id="node27" class="node">
<title>ParameterViewerComponent</title>
<polygon fill="#ffffb3" stroke="#000000" points="3184.7696,-122 3005.2304,-122 3005.2304,-86 3184.7696,-86 3184.7696,-122"/>
<text text-anchor="middle" x="3095" y="-99.8" font-family="Times,serif" font-size="14.00" fill="#000000">ParameterViewerComponent</text>
</g>
<!-- ParameterViewerComponent&#45;&gt;AppModule -->
<g id="edge27" class="edge">
<title>ParameterViewerComponent&#45;&gt;AppModule</title>
<path fill="none" stroke="#000000" d="M3095,-122.1871C3095,-137.1824 3095,-156 3095,-156 3095,-156 3712.1511,-156 3712.1511,-156"/>
<polygon fill="#000000" stroke="#000000" points="3712.1511,-159.5001 3722.1511,-156 3712.151,-152.5001 3712.1511,-159.5001"/>
</g>
<!-- PortTypePipe -->
<g id="node28" class="node">
<title>PortTypePipe</title>
<polygon fill="#ffffb3" stroke="#000000" points="2987.4888,-122 2894.5112,-122 2894.5112,-86 2987.4888,-86 2987.4888,-122"/>
<text text-anchor="middle" x="2941" y="-99.8" font-family="Times,serif" font-size="14.00" fill="#000000">PortTypePipe</text>
</g>
<!-- PortTypePipe&#45;&gt;AppModule -->
<g id="edge28" class="edge">
<title>PortTypePipe&#45;&gt;AppModule</title>
<path fill="none" stroke="#000000" d="M2941,-122.2819C2941,-137.9478 2941,-158 2941,-158 2941,-158 3712.34,-158 3712.34,-158"/>
<polygon fill="#000000" stroke="#000000" points="3712.34,-161.5001 3722.34,-158 3712.34,-154.5001 3712.34,-161.5001"/>
</g>
<!-- ProcedureEditorComponent -->
<g id="node29" class="node">
<title>ProcedureEditorComponent</title>
<polygon fill="#ffffb3" stroke="#000000" points="2876.5744,-122 2703.4256,-122 2703.4256,-86 2876.5744,-86 2876.5744,-122"/>
<text text-anchor="middle" x="2790" y="-99.8" font-family="Times,serif" font-size="14.00" fill="#000000">ProcedureEditorComponent</text>
</g>
<!-- ProcedureEditorComponent&#45;&gt;AppModule -->
<g id="edge29" class="edge">
<title>ProcedureEditorComponent&#45;&gt;AppModule</title>
<path fill="none" stroke="#000000" d="M2790,-122.0091C2790,-138.0494 2790,-159 2790,-159 2790,-159 3712.1484,-159 3712.1484,-159"/>
<polygon fill="#000000" stroke="#000000" points="3712.1485,-162.5001 3722.1484,-159 3712.1484,-155.5001 3712.1485,-162.5001"/>
</g>
<!-- ProcedureItemComponent -->
<g id="node30" class="node">
<title>ProcedureItemComponent</title>
<polygon fill="#ffffb3" stroke="#000000" points="2685.7366,-122 2522.2634,-122 2522.2634,-86 2685.7366,-86 2685.7366,-122"/>
<text text-anchor="middle" x="2604" y="-99.8" font-family="Times,serif" font-size="14.00" fill="#000000">ProcedureItemComponent</text>
</g>
<!-- ProcedureItemComponent&#45;&gt;AppModule -->
<g id="edge30" class="edge">
<title>ProcedureItemComponent&#45;&gt;AppModule</title>
<path fill="none" stroke="#000000" d="M2604,-122.0352C2604,-138.7344 2604,-161 2604,-161 2604,-161 3712.0297,-161 3712.0297,-161"/>
<polygon fill="#000000" stroke="#000000" points="3712.0297,-164.5001 3722.0297,-161 3712.0296,-157.5001 3712.0297,-164.5001"/>
</g>
<!-- PublishSettingsComponent -->
<g id="node31" class="node">
<title>PublishSettingsComponent</title>
<polygon fill="#ffffb3" stroke="#000000" points="2504.455,-122 2335.545,-122 2335.545,-86 2504.455,-86 2504.455,-122"/>
<text text-anchor="middle" x="2420" y="-99.8" font-family="Times,serif" font-size="14.00" fill="#000000">PublishSettingsComponent</text>
</g>
<!-- PublishSettingsComponent&#45;&gt;AppModule -->
<g id="edge31" class="edge">
<title>PublishSettingsComponent&#45;&gt;AppModule</title>
<path fill="none" stroke="#000000" d="M2420,-122.0336C2420,-139.0597 2420,-162 2420,-162 2420,-162 3712.303,-162 3712.303,-162"/>
<polygon fill="#000000" stroke="#000000" points="3712.303,-165.5001 3722.303,-162 3712.3029,-158.5001 3712.303,-165.5001"/>
</g>
<!-- ShortNamePipe -->
<g id="node32" class="node">
<title>ShortNamePipe</title>
<polygon fill="#ffffb3" stroke="#000000" points="2317.1486,-122 2212.8514,-122 2212.8514,-86 2317.1486,-86 2317.1486,-122"/>
<text text-anchor="middle" x="2265" y="-99.8" font-family="Times,serif" font-size="14.00" fill="#000000">ShortNamePipe</text>
</g>
<!-- ShortNamePipe&#45;&gt;AppModule -->
<g id="edge32" class="edge">
<title>ShortNamePipe&#45;&gt;AppModule</title>
<path fill="none" stroke="#000000" d="M2265,-122.002C2265,-139.6754 2265,-164 2265,-164 2265,-164 3711.9489,-164 3711.9489,-164"/>
<polygon fill="#000000" stroke="#000000" points="3711.949,-167.5001 3721.9489,-164 3711.9489,-160.5001 3711.949,-167.5001"/>
</g>
<!-- SimpleNamePipe -->
<g id="node33" class="node">
<title>SimpleNamePipe</title>
<polygon fill="#ffffb3" stroke="#000000" points="2194.9832,-122 2081.0168,-122 2081.0168,-86 2194.9832,-86 2194.9832,-122"/>
<text text-anchor="middle" x="2138" y="-99.8" font-family="Times,serif" font-size="14.00" fill="#000000">SimpleNamePipe</text>
</g>
<!-- SimpleNamePipe&#45;&gt;AppModule -->
<g id="edge33" class="edge">
<title>SimpleNamePipe&#45;&gt;AppModule</title>
<path fill="none" stroke="#000000" d="M2138,-122.2667C2138,-140.5552 2138,-166 2138,-166 2138,-166 3712.1725,-166 3712.1725,-166"/>
<polygon fill="#000000" stroke="#000000" points="3712.1726,-169.5001 3722.1725,-166 3712.1725,-162.5001 3712.1726,-169.5001"/>
</g>
<!-- TextViewerComponent -->
<g id="node34" class="node">
<title>TextViewerComponent</title>
<polygon fill="#ffffb3" stroke="#000000" points="2063.1839,-122 1914.8161,-122 1914.8161,-86 2063.1839,-86 2063.1839,-122"/>
<text text-anchor="middle" x="1989" y="-99.8" font-family="Times,serif" font-size="14.00" fill="#000000">TextViewerComponent</text>
</g>
<!-- TextViewerComponent&#45;&gt;AppModule -->
<g id="edge34" class="edge">
<title>TextViewerComponent&#45;&gt;AppModule</title>
<path fill="none" stroke="#000000" d="M1989,-122.2222C1989,-140.8285 1989,-167 1989,-167 1989,-167 3712.3066,-167 3712.3066,-167"/>
<polygon fill="#000000" stroke="#000000" points="3712.3066,-170.5001 3722.3066,-167 3712.3065,-163.5001 3712.3066,-170.5001"/>
</g>
<!-- ViewerContainerComponent -->
<g id="node35" class="node">
<title>ViewerContainerComponent</title>
<polygon fill="#ffffb3" stroke="#000000" points="1896.7338,-122 1719.2662,-122 1719.2662,-86 1896.7338,-86 1896.7338,-122"/>
<text text-anchor="middle" x="1808" y="-99.8" font-family="Times,serif" font-size="14.00" fill="#000000">ViewerContainerComponent</text>
</g>
<!-- ViewerContainerComponent&#45;&gt;AppModule -->
<g id="edge35" class="edge">
<title>ViewerContainerComponent&#45;&gt;AppModule</title>
<path fill="none" stroke="#000000" d="M1808,-122.1061C1808,-141.3391 1808,-169 1808,-169 1808,-169 3712.2412,-169 3712.2412,-169"/>
<polygon fill="#000000" stroke="#000000" points="3712.2413,-172.5001 3722.2412,-169 3712.2412,-165.5001 3712.2413,-172.5001"/>
</g>
<!-- AppComponent  -->
<g id="node40" class="node">
<title>AppComponent </title>
<polygon fill="#80b1d3" stroke="#000000" points="3818.439,-252 3709.561,-252 3709.561,-216 3818.439,-216 3818.439,-252"/>
<text text-anchor="middle" x="3764" y="-229.8" font-family="Times,serif" font-size="14.00" fill="#000000">AppComponent </text>
</g>
<!-- AppModule&#45;&gt;AppComponent  -->
<g id="edge39" class="edge">
<title>AppModule&#45;&gt;AppComponent </title>
<path fill="none" stroke="#000000" stroke-dasharray="1,5" d="M3764,-187.1061C3764,-187.1061 3764,-205.991 3764,-205.991"/>
<polygon fill="#000000" stroke="#000000" points="3760.5001,-205.9909 3764,-215.991 3767.5001,-205.991 3760.5001,-205.9909"/>
</g>
<!-- CustomMaterialModule -->
<g id="node37" class="node">
<title>CustomMaterialModule</title>
<polygon fill="#8dd3c7" stroke="#000000" points="1695.0337,-122 1692.0337,-126 1671.0337,-126 1668.0337,-122 1544.9663,-122 1544.9663,-86 1695.0337,-86 1695.0337,-122"/>
<text text-anchor="middle" x="1620" y="-99.8" font-family="Times,serif" font-size="14.00" fill="#000000">CustomMaterialModule</text>
</g>
<!-- CustomMaterialModule&#45;&gt;AppModule -->
<g id="edge36" class="edge">
<title>CustomMaterialModule&#45;&gt;AppModule</title>
<path fill="none" stroke="#000000" d="M1620,-122.0348C1620,-141.5762 1620,-170 1620,-170 1620,-170 3712.1341,-170 3712.1341,-170"/>
<polygon fill="#000000" stroke="#000000" points="3712.1342,-173.5001 3722.1341,-170 3712.1341,-166.5001 3712.1342,-173.5001"/>
</g>
<!-- GSViewer -->
<g id="node38" class="node">
<title>GSViewer</title>
<polygon fill="#8dd3c7" stroke="#000000" points="1526.5828,-122 1523.5828,-126 1502.5828,-126 1499.5828,-122 1451.4172,-122 1451.4172,-86 1526.5828,-86 1526.5828,-122"/>
<text text-anchor="middle" x="1489" y="-99.8" font-family="Times,serif" font-size="14.00" fill="#000000">GSViewer</text>
</g>
<!-- GSViewer&#45;&gt;AppModule -->
<g id="edge37" class="edge">
<title>GSViewer&#45;&gt;AppModule</title>
<path fill="none" stroke="#000000" d="M1489,-122.2228C1489,-142.3652 1489,-172 1489,-172 1489,-172 3712.0787,-172 3712.0787,-172"/>
<polygon fill="#000000" stroke="#000000" points="3712.0788,-175.5001 3722.0787,-172 3712.0787,-168.5001 3712.0788,-175.5001"/>
</g>
<!-- MobiusCesium -->
<g id="node39" class="node">
<title>MobiusCesium</title>
<polygon fill="#8dd3c7" stroke="#000000" points="1433.5578,-122 1430.5578,-126 1409.5578,-126 1406.5578,-122 1332.4422,-122 1332.4422,-86 1433.5578,-86 1433.5578,-122"/>
<text text-anchor="middle" x="1383" y="-99.8" font-family="Times,serif" font-size="14.00" fill="#000000">MobiusCesium</text>
</g>
<!-- MobiusCesium&#45;&gt;AppModule -->
<g id="edge38" class="edge">
<title>MobiusCesium&#45;&gt;AppModule</title>
<path fill="none" stroke="#000000" d="M1383,-122.1289C1383,-142.5724 1383,-173 1383,-173 1383,-173 3712.1695,-173 3712.1695,-173"/>
<polygon fill="#000000" stroke="#000000" points="3712.1695,-176.5001 3722.1695,-173 3712.1694,-169.5001 3712.1695,-176.5001"/>
</g>
<!-- CodeService -->
<g id="node41" class="node">
<title>CodeService</title>
<ellipse fill="#fdb462" stroke="#000000" cx="1248" cy="-104" rx="60.2518" ry="18"/>
<text text-anchor="middle" x="1248" y="-99.8" font-family="Times,serif" font-size="14.00" fill="#000000">CodeService</text>
</g>
<!-- CodeService&#45;&gt;AppModule -->
<g id="edge40" class="edge">
<title>CodeService&#45;&gt;AppModule</title>
<path fill="none" stroke="#000000" d="M1248,-122.2843C1248,-143.3211 1248,-175 1248,-175 1248,-175 3712.1696,-175 3712.1696,-175"/>
<polygon fill="#000000" stroke="#000000" points="3712.1696,-178.5001 3722.1696,-175 3712.1695,-171.5001 3712.1696,-178.5001"/>
</g>
<!-- ConsoleService -->
<g id="node42" class="node">
<title>ConsoleService</title>
<ellipse fill="#fdb462" stroke="#000000" cx="1098" cy="-104" rx="71.7873" ry="18"/>
<text text-anchor="middle" x="1098" y="-99.8" font-family="Times,serif" font-size="14.00" fill="#000000">ConsoleService</text>
</g>
<!-- ConsoleService&#45;&gt;AppModule -->
<g id="edge41" class="edge">
<title>ConsoleService&#45;&gt;AppModule</title>
<path fill="none" stroke="#000000" d="M1098,-122.0449C1098,-143.6623 1098,-177 1098,-177 1098,-177 3712.1235,-177 3712.1235,-177"/>
<polygon fill="#000000" stroke="#000000" points="3712.1235,-180.5001 3722.1235,-177 3712.1235,-173.5001 3712.1235,-180.5001"/>
</g>
<!-- ExecuteService -->
<g id="node43" class="node">
<title>ExecuteService</title>
<ellipse fill="#fdb462" stroke="#000000" cx="937" cy="-104" rx="71.1843" ry="18"/>
<text text-anchor="middle" x="937" y="-99.8" font-family="Times,serif" font-size="14.00" fill="#000000">ExecuteService</text>
</g>
<!-- ExecuteService&#45;&gt;AppModule -->
<g id="edge42" class="edge">
<title>ExecuteService&#45;&gt;AppModule</title>
<path fill="none" stroke="#000000" d="M937,-122.2921C937,-144.2057 937,-178 937,-178 937,-178 3712.1205,-178 3712.1205,-178"/>
<polygon fill="#000000" stroke="#000000" points="3712.1205,-181.5001 3722.1205,-178 3712.1205,-174.5001 3712.1205,-181.5001"/>
</g>
<!-- FlowchartService -->
<g id="node44" class="node">
<title>FlowchartService</title>
<ellipse fill="#fdb462" stroke="#000000" cx="769" cy="-104" rx="79.2883" ry="18"/>
<text text-anchor="middle" x="769" y="-99.8" font-family="Times,serif" font-size="14.00" fill="#000000">FlowchartService</text>
</g>
<!-- FlowchartService&#45;&gt;AppModule -->
<g id="edge43" class="edge">
<title>FlowchartService&#45;&gt;AppModule</title>
<path fill="none" stroke="#000000" d="M769,-122.0109C769,-144.4852 769,-180 769,-180 769,-180 3712.2335,-180 3712.2335,-180"/>
<polygon fill="#000000" stroke="#000000" points="3712.2335,-183.5001 3722.2335,-180 3712.2334,-176.5001 3712.2335,-183.5001"/>
</g>
<!-- LayoutService -->
<g id="node45" class="node">
<title>LayoutService</title>
<ellipse fill="#fdb462" stroke="#000000" cx="605" cy="-104" rx="67.1946" ry="18"/>
<text text-anchor="middle" x="605" y="-99.8" font-family="Times,serif" font-size="14.00" fill="#000000">LayoutService</text>
</g>
<!-- LayoutService&#45;&gt;AppModule -->
<g id="edge44" class="edge">
<title>LayoutService&#45;&gt;AppModule</title>
<path fill="none" stroke="#000000" d="M605,-122.2479C605,-145.0179 605,-181 605,-181 605,-181 3712.3196,-181 3712.3196,-181"/>
<polygon fill="#000000" stroke="#000000" points="3712.3197,-184.5001 3722.3196,-181 3712.3196,-177.5001 3712.3197,-184.5001"/>
</g>
<!-- MobiusService -->
<g id="node46" class="node">
<title>MobiusService</title>
<ellipse fill="#fdb462" stroke="#000000" cx="450" cy="-104" rx="69.5012" ry="18"/>
<text text-anchor="middle" x="450" y="-99.8" font-family="Times,serif" font-size="14.00" fill="#000000">MobiusService</text>
</g>
<!-- MobiusService&#45;&gt;AppModule -->
<g id="edge45" class="edge">
<title>MobiusService&#45;&gt;AppModule</title>
<path fill="none" stroke="#000000" d="M450,-122.3228C450,-145.6602 450,-183 450,-183 450,-183 3712.0988,-183 3712.0988,-183"/>
<polygon fill="#000000" stroke="#000000" points="3712.0988,-186.5001 3722.0988,-183 3712.0988,-179.5001 3712.0988,-186.5001"/>
</g>
<!-- ModuleService -->
<g id="node47" class="node">
<title>ModuleService</title>
<ellipse fill="#fdb462" stroke="#000000" cx="292" cy="-104" rx="70.0635" ry="18"/>
<text text-anchor="middle" x="292" y="-99.8" font-family="Times,serif" font-size="14.00" fill="#000000">ModuleService</text>
</g>
<!-- ModuleService&#45;&gt;AppModule -->
<g id="edge46" class="edge">
<title>ModuleService&#45;&gt;AppModule</title>
<path fill="none" stroke="#000000" d="M292,-122.1532C292,-145.7566 292,-184 292,-184 292,-184 3712.2818,-184 3712.2818,-184"/>
<polygon fill="#000000" stroke="#000000" points="3712.2819,-187.5001 3722.2818,-184 3712.2818,-180.5001 3712.2819,-187.5001"/>
</g>
<!-- NodeLibraryService -->
<g id="node48" class="node">
<title>NodeLibraryService</title>
<ellipse fill="#fdb462" stroke="#000000" cx="114" cy="-104" rx="89.7267" ry="18"/>
<text text-anchor="middle" x="114" y="-99.8" font-family="Times,serif" font-size="14.00" fill="#000000">NodeLibraryService</text>
</g>
<!-- NodeLibraryService&#45;&gt;AppModule -->
<g id="edge47" class="edge">
<title>NodeLibraryService&#45;&gt;AppModule</title>
<path fill="none" stroke="#000000" d="M114,-122.1985C114,-146.3563 114,-186 114,-186 114,-186 3712.0638,-186 3712.0638,-186"/>
<polygon fill="#000000" stroke="#000000" points="3712.0638,-189.5001 3722.0638,-186 3712.0638,-182.5001 3712.0638,-189.5001"/>
</g>
</g>
</svg>
